<?xml version="1.0" standalone="no"?><!DOCTYPE svg PUBLIC "-//W3C//DTD SVG 1.1//EN" "http://www.w3.org/Graphics/SVG/1.1/DTD/svg11.dtd"><svg t="1551843792224" class="icon" style="" viewBox="0 0 1024 1024" version="1.1" xmlns="http://www.w3.org/2000/svg" p-id="6826" xmlns:xlink="http://www.w3.org/1999/xlink" width="200" height="200"><defs><style type="text/css"></style></defs><path d="M574.282508 650.063449c-3.193739 0-5.678326 0-8.162914 0-85.251639 0-170.503279 0.00614-255.754918-0.007163-12.641925-0.002047-20.87954-5.8001-22.906709-16.158005-0.404206-2.066055-0.364297-4.239558-0.364297-6.362918-0.016373-75.757404-0.019443-151.514809-0.010233-227.272213 0.002047-14.371312 7.783267-22.01541 22.37766-22.01541 85.639472-0.005117 171.277922-0.002047 256.917394-0.002047 2.314719 0 4.629437 0 7.902994 0 0-2.456958 0-4.676509 0-6.897084 0-67.428715-0.008186-134.858454 0.00921-202.287169 0.002047-9.280364 4.417613-16.678868 11.908214-19.516496 8.619308-3.26537 16.274662-1.757017 22.773679 5.108345 3.723811 3.934612 7.776104 7.556093 11.613502 11.386328 48.275493 48.174186 96.53052 96.366791 144.806014 144.540977 61.987796 61.856813 123.990942 123.697253 185.981808 185.55202 10.31288 10.290367 10.376325 21.135366 0.172939 31.320333-88.715531 88.562035-177.423899 177.131233-266.166035 265.666662-25.235754 25.176402-50.623981 50.200332-75.833129 75.403341-6.486738 6.485715-13.724583 9.334599-22.583344 5.974062-8.615215-3.267417-12.673647-10.051937-12.675694-20.714787-0.013303-65.295122-0.007163-130.590244-0.007163-195.884342C574.282508 655.595442 574.282508 653.294027 574.282508 650.063449z" p-id="6827"></path><path d="M414.916894 151.693888c0 25.637913 0 50.742684 0 76.55456-2.514263 0-4.774747 0-7.03523 0-64.908312 0-129.815601-0.00921-194.723913 0.00307-41.130769 0.008186-71.417563 30.358425-71.41961 71.572082-0.007163 142.603859 0.254803 285.207717-0.176009 427.809529-0.113587 37.721113 28.591175 64.909335 55.125505 69.864184 5.863545 1.094938 11.922541 1.588171 17.892509 1.598404 64.326051 0.110517 128.653125 0.068562 192.979176 0.068562 2.287089 0 4.575202 0 7.238868 0 0 25.560142 0 50.658773 0 76.112492-0.914836 0.187265-1.983167 0.596588-3.052522 0.596588-68.394716-0.005117-136.799666 0.692778-205.181079-0.290619-66.827011-0.960885-126.009925-51.680033-138.765437-117.318986-1.797949-9.251711-2.680039-18.829857-2.691295-28.257577-0.164752-144.153144-0.544399-288.308335 0.090051-432.459433 0.265036-60.208267 30.182416-103.430674 82.425268-131.525546 18.429745-9.910721 38.788421-14.391778 59.774385-14.447037 67.813478-0.178055 135.62798-0.067538 203.442482-0.061398C411.985122 151.513786 413.131225 151.612023 414.916894 151.693888z" p-id="6828"></path></svg>